<svg viewBox="0 0 879 249" xmlns="http://www.w3.org/2000/svg" height="39px" width="142px" class="touchable-icon-cyfi9f-0 hlayju"><g fill="#293662" fill-rule="evenodd"><path d="M364.623 151.446c-5.662 1.164-10.688-.823-15.156-6.785-5.413-7.234-13.836-8.71-22.43-6.815-8.593 1.894-13.82 7.762-16.054 16.146a40.118 40.118 0 00.124 21.735c2.31 8.042 7.29 13.724 15.729 15.525 8.857 1.894 17.528.683 22.942-6.97 3.97-5.605 8.485-6.847 14.472-6.21h2.761c12.736 0 13.217.775 7.446 12.124-8.857 17.435-28.278 26.393-50.088 23.148-19.012-2.565-34.12-17.258-37.228-36.204-3.103-18.475-.295-35.382 13.62-49.37 16.768-16.86 62.047-18.444 75.17 14.205 3.521 8.757 2.994 9.564-6.624 9.61l-4.684-.14z"></path><path d="M468.937 147.986c0-10.844 0-10.844-11.05-10.844s-11.19 0-13.295 10.364c-.607-.372-1.34-.604-1.667-1.1-9.694-14.036-36.439-14.965-48.315 3.966-6.966 11.123-7.792 23.238-5.392 35.632 2.65 13.818 10.27 23.92 24.843 27.142 12.234 2.695 22.599-.961 30.625-11.34 1.652 11.185 1.652 11.185 12.624 11.185 1.386-.07 2.775-.07 4.161 0 5.751.573 7.575-2.092 7.528-7.607-.202-19.086-.062-38.234-.062-57.398zm-40.631 45.423c-9.866-.109-16.256-7.266-16.287-18.219 0-11.433 6.406-18.497 16.708-18.482 10.302.016 16.77 7.328 16.723 18.59-.047 11.263-6.873 18.22-17.144 18.11zM617.973 142.85c0-2.265 0-5.01-3.118-5.352-5.925-.651-12.02-1.117-17.836.202-4.24.993-.858 6.391-3.57 8.625-1.56.109-2.105-.992-2.947-1.737-14.266-13.28-35.859-10.937-46.445 5.492-8.45 13.201-8.7 27.644-3.976 42.134 4.974 15.079 18.49 23.27 34.3 21.563 7.702-.822 13.44-5.181 18.802-10.533 3.228 9.835 3.228 9.866 14.157 9.82 1.559 0 3.243-.109 4.849 0 4.1.14 5.768-1.924 5.768-5.849.016-21.501.078-42.91.016-64.365zm-40.411 50.527c-10.384 0-16.59-7.027-16.542-18.616 0-10.859 6.548-18.073 16.323-18.181 10.197-.124 16.947 7.167 16.979 18.29.03 11.123-6.595 18.585-16.76 18.507z" fill-rule="nonzero"></path><path d="M709.612 180.091c4.125-11.27 8.652-22.431 12.236-33.888 2.318-7.353 5.701-10.587 13.998-10.167 15.31.777 15.45.233 9.532 14.208-12.607 30.112-25.461 60.13-37.806 90.365-2.549 6.218-5.747 8.581-12.591 8.38-16.84-.498-16.856-.14-9.95-15.313a45.873 45.873 0 013.538-7.4c8.111-11.487 6.18-22.385.186-34.355-8.019-15.871-14.384-32.645-21.63-48.812-2.348-5.207-1.097-6.653 4.48-6.73 18.447-.28 18.54-.467 25.323 16.353 3.677 9.063 7.168 18.188 10.814 27.282l1.87.077zM810.787 162.105c-6.226.294-11.41.82-14.212-5.548-1.276-2.89-4.856-4.003-8.265-4.126-3.876-.14-7.66.247-8.749 4.76-1.09 4.513 1.775 6.815 5.635 7.943 6.398 1.855 12.874 3.37 19.271 5.209 12.453 3.554 18.804 11.019 18.524 21.482-.28 10.462-7.02 18.19-19.318 20.817-11.783 2.58-23.349 1.762-33.872-4.884a23.404 23.404 0 01-8.81-9.38c-5.2-10.664-3.907-10.973 6.148-10.819 5.775.093 11.146-.263 15.053 5.44 2.382 3.477 6.74 4.637 11.099 4.42 3.736-.124 6.88-1.236 7.658-5.394.779-4.157-1.556-6.49-5.261-7.557-7.487-2.163-15.115-3.894-22.54-6.182-12.67-4.049-18.166-15.67-13.371-27.663a18.55 18.55 0 015.557-7.728c14.01-11.483 40.254-8.16 50.683 6.522 2.35 3.323 5.729 7.217 3.923 11.066-1.806 3.848-6.693.896-9.153 1.622zM852.315 118c10.686 0 10.98 0 10.81 10.732-.093 6.222 1.945 9.037 8.276 8.182 5.498-.747 8.184 1.384 7.428 7.232a28.45 28.45 0 000 6.222c.417 4.464-1.544 5.942-5.93 6.113-9.59.373-9.605.56-9.635 10.157v17.11c0 5.676 2.61 9.192 8.647 8.88 5.173-.264 7.15 1.556 7.088 7.046-.155 14 .077 14-14.006 12.895-16.028-1.291-23.842-9.162-24.707-25.447-.417-8.212-.185-16.456-.17-24.7 0-3.281-.463-6.128-4.632-5.972-4.833.17-5.62-2.769-5.466-6.673.108-2.504 0-5.024 0-7.544 0-3.11.895-5.49 4.632-5.288 4.849.28 5.698-2.675 5.466-6.595v-.684c.124-12.46-.833-11.542 12.2-11.666zM500.698 118.13h6.25c3.718-.155 5.624 1.445 5.515 5.217.086 1.593.086 3.19 0 4.782-.922 6.8 1.75 9.844 8.843 8.897 4.61-.621 6.953 1.397 6.625 6.21a49.834 49.834 0 000 6.831c.312 4.658-1.953 6.878-6.578 6.304-7.03-.87-9.515 2.034-8.937 8.927.516 6.335.187 12.763.14 19.144 0 5.294 2.454 8.43 7.813 8.104 6.39-.372 8.093 2.733 7.53 8.291a47.705 47.705 0 000 6.21c.157 4.022-1.796 5.497-5.812 5.792-22.061 1.552-32.81-8.074-33.03-30.058-.062-7.07-.062-14.14 0-21.209 0-2.888-.796-5.092-4.14-4.984-5.14.171-6.156-2.732-5.874-6.986.172-2.717.093-5.465.078-8.198-.016-2.733 1.218-4.425 4.109-4.27 5.203.264 6.25-2.686 5.843-6.94-.109-1.366.157-2.763 0-4.099-.953-6.458 2.094-8.725 8.25-7.949 1.15.078 2.303.078 3.453 0l-.078-.015zM656.906 163.016c0 14.396-.157 28.793.094 43.189 0 5.13-1.932 6.84-6.926 6.794-19.835-.17-16.804 1.555-16.914-16.231-.173-25.14.125-50.294-.157-75.434-.079-6.576 1.57-9.484 8.904-9.328 17.841.497 14.779-.995 14.983 14.599.126 12.173.016 24.33.016 36.41z"></path><path d="M384.584 40C371.98 40 364 48.089 364 60.93c0 12.84 8.47 21.237 20.677 21.067 12.206-.169 20.369-8.719 20.323-21.529C404.938 48.335 396.668 40 384.584 40zm-.184 35.662c-7.886 0-13.405-6.151-13.544-14.779-.107-8.965 5.489-15.193 13.728-15.224 7.825 0 13.452 6.151 13.529 14.748.061 9.057-5.565 15.332-13.713 15.255zM314.869 28.47c-5.066-.554-10.21-.2-15.322-.447-4.72-.246-6.765 1.43-6.529 6.149.268 6.563 0 13.112 0 19.675v21.75c.142 2.076 0 4.274 3.068 4.397 3.303.138 3.728-2.014 3.775-4.473v-4.074c0-13.726-.503-11.959 11.562-12.45a23.407 23.407 0 004.846-.661c8.29-1.983 12.097-7.179 11.703-15.971-.22-7.978-4.766-13.035-13.103-13.896zm-6.293 24.732c-8.557 0-8.636-.108-8.605-11.437-.535-4.427-.613-9.13 7.74-8.577 9.03.6 13.356 3.366 13.45 10.16.094 6.795-3.854 9.854-12.553 9.854h-.032z" fill-rule="nonzero"></path><path d="M498.84 40.025c7.16-.307 12.71 2.166 16.36 8.093 1.088 1.75 3.066 4.238.597 6.004-2.468 1.766-4.738.584-6.21-2.027a11.763 11.763 0 00-7.773-6.05c-6.125-1.722-12.575 1.373-15.072 7.233-3.266 7.586-.95 17.03 5.06 20.654 5.673 3.44 12.802 1.935 17.34-3.931 1.825-2.365 3.803-4.607 6.594-2.626 2.79 1.98.26 4.607-.92 6.48-6.823 10.75-25.253 10.918-32.72.154-5.213-7.525-5.198-15.848-1.38-23.864 3.511-7.54 10.227-10.427 18.123-10.12z"></path><path d="M462.844 61.765c8.333-.415 9.581-2.076 6.866-10.01-3.76-9.58-10.704-13.594-21.736-12.61-9.457.86-16.135 7.32-17.68 17.13-1.545 9.81 3.12 19.39 11.08 22.897 9.065 4.013 21.08 1.2 26.12-6.29 1.17-1.753 3.355-3.998.531-5.828a4.124 4.124 0 00-3.362-.488 4.055 4.055 0 00-2.568 2.195c-3.635 5.951-9.237 7.228-15.604 5.982-6.366-1.245-8.785-6.043-9.737-11.81 8.66-2.475 17.446-.768 26.09-1.168zm-26.043-4.89c.78-6.474 4.385-10.764 10.923-11.856 7.069-1.292 12.483 1.2 15.323 7.996-.265 3.383-2.465 4.613-5.617 4.506-6.85-.047-13.763.738-20.582-.646h-.047z" fill-rule="nonzero"></path><path d="M540.054 80.98c-7.152-.341-10.956-3.926-11.535-11.282-.39-5.432-.125-10.863-.219-16.372 0-3.352.532-6.689-4.179-8.148-2.88-.9-2.832-3.973.173-4.857 3.521-1.055 3.99-3.228 4.085-6.115 0-2.157.516-4.159 3.38-4.205 2.864-.047 3.584 1.769 3.537 4.02-.094 4.36 2.02 6.207 6.339 5.99 1.847 0 3.913.279 3.834 2.824-.078 2.545-2.128 2.762-3.96 2.762-5.008-.108-6.26 2.654-6.135 6.968.157 4.082.094 8.194 0 12.276-.125 5.431.423 10.195 7.638 10.413a2.702 2.702 0 012.47 1.079 2.65 2.65 0 01.285 2.66c-.986 3.042-3.835 1.615-5.713 1.987zM420.873 67.854c0 7.474.285 14.962 0 22.42-.348 6.824-4.464 10.16-10.844 9.68-1.583-.123-3.467 0-3.91-2.053a2.646 2.646 0 01.36-2.3 2.785 2.785 0 012.062-1.174c5.287-.988 5.414-4.77 5.398-8.832V46.176c0-2.486-.886-6.176 3.436-6.176s3.514 3.551 3.562 6.083c.142 7.242 0 14.484 0 21.74l-.064.031zM336.014 59.674V44.75c0-1.96-.275-4.29 2.336-5.016a3.342 3.342 0 012.64-.004 3.395 3.395 0 011.834 1.918c1.038 2.531 2.504 2.053 4.169.694a10.252 10.252 0 011.68-1.11c2.595-1.282 5.16-3.087 8.184-1.776 1.344.602 1.207 2.346 1.039 3.689-.52 4.09-4.108 2.624-6.383 3.41-5.024 1.714-7.971 5.001-8.185 10.387-.244 6.096-.26 12.193-.428 18.289 0 2.346-.35 4.738-3.481 4.769-3.13.03-3.39-2.392-3.405-4.738-.031-5.201 0-10.402 0-15.588zM417.622 24c2.72.307 4.44 1.674 4.376 4.315a3.563 3.563 0 01-1.227 2.72 3.928 3.928 0 01-2.94.95c-2.67 0-4.714-1.09-4.827-3.824-.112-2.733 1.98-3.915 4.618-4.161zM225 141c-8.556 41.035-48.477 86.457-109.72 86.995C54.456 228.528 12.81 184.082 3.6 141H225zM227.952 123.423h-52.807c1.609-23.667-5.807-43.639-25.267-58.094a58.104 58.104 0 00-39.283-11.608c-34.892 2.204-54.518 30.09-56.899 52.228 5.486 0 10.94.086 16.382-.128.59 0 1.319-1.716 1.646-2.74 5.325-16.772 16.451-27.43 33.659-31.184 26.178-5.716 51.852 14.777 52.394 41.553.064 3.217 0 6.434 0 9.99h-17.588v-8.043c-.102-14.9-11.54-26.643-26.044-26.74-14.505-.096-26.109 11.598-26.366 26.445-.043 2.68 0 5.361 0 8.498h-52.47c-.536-9.431-.171-18.616 2.108-27.682 9.077-36.566 42.685-61.655 80.326-59.966 37.122 1.571 68.282 29.65 74.175 67.022.402 2.541 1.26 3.217 3.647 3.13 4.6-.155 9.217-.042 13.834-.042-1.298-33.875-29.717-80.292-84.031-86.769C95.27 15.696 68.877 24.8 47.079 45.871c-21.797 21.072-30.73 47.414-29.267 77.68H.085c-1.373-42.941 13.856-78.2 49.482-102.36C89.151-5.617 131.31-7.097 172.405 17.363c39.471 23.495 56.625 60.142 55.547 106.06z"></path></g></svg>